# xmcd CD database file
#
# Track frame offsets:
#	188
#	18588
#	38313
#
# Disc length: 789 seconds
#
# Revision: 0
# Processed by: cddbd v1.5PL3 Copyright (c) Steve Scherf et al.
# Submitted via: CDex 1.50
#
DISCID=15031303
DTITLE=Eros Ramazzotti - Canzoni Lontane Maxi Single
DYEAR=1990
DGENRE=Blues
TTITLE0=Canzoni Lontane
TTITLE1=C´é una strada in cielo
TTITLE2=Il gioco della verità
EXTD=YEAR: 1990
EXTT0=
EXTT1=
EXTT2=
PLAYORDER=
